<svg xmlns="http://www.w3.org/2000/svg" viewBox="0 0 900 1600" preserveAspectRatio="xMidYMid slice" role="img" aria-label="Soft floral invitation background">
  <defs>
    <linearGradient id="paper" x1="0" x2="1" y1="0" y2="1">
      <stop offset="0" stop-color="#e9e6ec"/>
      <stop offset=".42" stop-color="#e5e6ec"/>
      <stop offset=".72" stop-color="#ede6e4"/>
      <stop offset="1" stop-color="#f4eeea"/>
    </linearGradient>
    <radialGradient id="blush" cx="78%" cy="12%" r="64%">
      <stop offset="0" stop-color="#d8aec1" stop-opacity=".48"/>
      <stop offset=".58" stop-color="#ddd7df" stop-opacity=".17"/>
      <stop offset="1" stop-color="#fff" stop-opacity="0"/>
    </radialGradient>
    <radialGradient id="bluewash" cx="45%" cy="38%" r="50%">
      <stop offset="0" stop-color="#cdd5df" stop-opacity=".45"/>
      <stop offset="1" stop-color="#fff" stop-opacity="0"/>
    </radialGradient>
    <filter id="blur">
      <feGaussianBlur stdDeviation="1.2"/>
    </filter>
    <filter id="soften">
      <feGaussianBlur stdDeviation="9"/>
    </filter>
    <symbol id="daisy" viewBox="-42 -42 84 84">
      <g opacity=".82">
        <ellipse rx="11" ry="28" fill="#ead3d0" transform="rotate(0) translate(0 -16)"/>
        <ellipse rx="11" ry="28" fill="#ead3d0" transform="rotate(45) translate(0 -16)"/>
        <ellipse rx="11" ry="28" fill="#ead3d0" transform="rotate(90) translate(0 -16)"/>
        <ellipse rx="11" ry="28" fill="#ead3d0" transform="rotate(135) translate(0 -16)"/>
        <ellipse rx="11" ry="28" fill="#d8aaa9" opacity=".62" transform="rotate(22) translate(0 -15)"/>
        <ellipse rx="11" ry="28" fill="#d8aaa9" opacity=".62" transform="rotate(112) translate(0 -15)"/>
        <circle r="9" fill="#7e3b4a"/>
      </g>
    </symbol>
    <symbol id="berry" viewBox="-12 -12 24 24">
      <circle r="9" fill="#793646"/>
      <circle cx="-3" cy="-4" r="3" fill="#b66a76" opacity=".65"/>
    </symbol>
    <symbol id="leaf" viewBox="-5 -28 10 56">
      <path d="M0-27C16-8 11 14 0 27-12 13-16-9 0-27z" fill="#bca9a3" opacity=".7"/>
      <path d="M0-23v43" stroke="#8d7875" stroke-width="1.4" opacity=".45"/>
    </symbol>
  </defs>
  <rect width="900" height="1600" fill="url(#paper)"/>
  <rect width="900" height="1600" fill="url(#blush)"/>
  <rect width="900" height="1600" fill="url(#bluewash)"/>
  <g filter="url(#soften)" opacity=".38">
    <ellipse cx="190" cy="220" rx="210" ry="150" fill="#d0bac8"/>
    <ellipse cx="690" cy="1100" rx="260" ry="180" fill="#d9b8bd"/>
    <ellipse cx="430" cy="720" rx="280" ry="220" fill="#cfd9e3"/>
    <ellipse cx="240" cy="1350" rx="290" ry="180" fill="#ead5d1"/>
  </g>
  <g opacity=".45" filter="url(#blur)">
    <ellipse cx="450" cy="560" rx="185" ry="100" fill="#c8beb7"/>
    <path d="M450 430c-64 25-123 66-172 121 42 39 93 72 172 85 77-13 131-48 172-85-50-56-108-96-172-121z" fill="#d3cbc4"/>
    <path d="M450 438c-64 43-108 89-135 142 44 33 87 50 135 56 48-6 92-23 135-56-27-53-71-99-135-142z" fill="#eee8e2" opacity=".32"/>
    <path d="M315 585c45-25 89-25 135 0 46-26 91-26 135 0" fill="none" stroke="#8e8180" stroke-width="5" opacity=".22"/>
    <path d="M450 430v205" stroke="#8e8180" stroke-width="4" opacity=".18"/>
  </g>
  <g stroke="#8b7672" stroke-linecap="round" opacity=".55">
    <path d="M68 1260c75-118 120-224 115-335" stroke-width="4" fill="none"/>
    <path d="M104 1240c122-82 185-160 192-252" stroke-width="3" fill="none"/>
    <path d="M814 1250c-85-101-118-208-91-338" stroke-width="4" fill="none"/>
    <path d="M754 1285c-126-84-171-171-162-272" stroke-width="3" fill="none"/>
    <path d="M54 290c93 29 160 83 197 164" stroke-width="3" fill="none"/>
    <path d="M818 330c-78 31-129 88-151 166" stroke-width="3" fill="none"/>
  </g>
  <g opacity=".95">
    <use href="#daisy" x="74" y="1218" width="100" height="100" transform="rotate(-20 74 1218)"/>
    <use href="#daisy" x="192" y="1130" width="78" height="78" transform="rotate(18 192 1130)"/>
    <use href="#daisy" x="134" y="1388" width="88" height="88" transform="rotate(12 134 1388)"/>
    <use href="#daisy" x="784" y="1192" width="96" height="96" transform="rotate(20 784 1192)"/>
    <use href="#daisy" x="690" y="1302" width="80" height="80" transform="rotate(-16 690 1302)"/>
    <use href="#daisy" x="742" y="1014" width="76" height="76" transform="rotate(36 742 1014)"/>
    <use href="#daisy" x="122" y="340" width="80" height="80" opacity=".68" transform="rotate(28 122 340)"/>
    <use href="#daisy" x="812" y="430" width="66" height="66" opacity=".62" transform="rotate(-18 812 430)"/>
  </g>
  <g>
    <use href="#berry" x="232" y="1086" width="34" height="34"/>
    <use href="#berry" x="277" y="1210" width="26" height="26"/>
    <use href="#berry" x="92" y="1054" width="30" height="30"/>
    <use href="#berry" x="785" y="1110" width="34" height="34"/>
    <use href="#berry" x="646" y="1185" width="27" height="27"/>
    <use href="#berry" x="608" y="1348" width="25" height="25"/>
    <use href="#berry" x="68" y="447" width="25" height="25"/>
    <use href="#berry" x="786" y="560" width="27" height="27"/>
    <use href="#berry" x="823" y="790" width="26" height="26"/>
  </g>
  <g opacity=".78">
    <use href="#leaf" x="178" y="1248" width="28" height="82" transform="rotate(47 178 1248)"/>
    <use href="#leaf" x="245" y="1294" width="22" height="64" transform="rotate(76 245 1294)"/>
    <use href="#leaf" x="748" y="1228" width="30" height="86" transform="rotate(-48 748 1228)"/>
    <use href="#leaf" x="650" y="1112" width="23" height="67" transform="rotate(-68 650 1112)"/>
    <use href="#leaf" x="145" y="435" width="22" height="67" transform="rotate(-42 145 435)"/>
    <use href="#leaf" x="735" y="490" width="22" height="67" transform="rotate(44 735 490)"/>
  </g>
  <rect width="900" height="1600" fill="#fff" opacity=".38"/>
</svg>
